PathFileType	4	(X/Y/Z)	17_1_3_p0_0-473.trc
DataRate	CameraRate	NumFrames	NumMarkers	Units	OrigDataRate	OrigDataStartFrame	OrigNumFrames
60.0	60.0	6	27	m	60.0	296	474
Frame#	Time	RHip			RKnee			RAnkle			RBigToe			RSmallToe			RHeel			LHip			LKnee			LAnkle			LBigToe			LSmallToe			LHeel			Neck			Head			Nose			RShoulder			RElbow			RWrist			RThumb			RIndex			RPinky			LShoulder			LElbow			LWrist			LThumb			LIndex			LPinky			
		X1	Y1	Z1	X2	Y2	Z2	X3	Y3	Z3	X4	Y4	Z4	X5	Y5	Z5	X6	Y6	Z6	X7	Y7	Z7	X8	Y8	Z8	X9	Y9	Z9	X10	Y10	Z10	X11	Y11	Z11	X12	Y12	Z12	X13	Y13	Z13	X14	Y14	Z14	X15	Y15	Z15	X16	Y16	Z16	X17	Y17	Z17	X18	Y18	Z18	X19	Y19	Z19	X20	Y20	Z20	X21	Y21	Z21	X22	Y22	Z22	X23	Y23	Z23	X24	Y24	Z24	X25	Y25	Z25	X26	Y26	Z26	X27	Y27	Z27	
296	4.933333333333334	0.26003087392963214	0.6104857848457322	0.9096067896424072	0.2428669546092265	0.5183619829011592	1.24493658873605	0.23821350961887422	0.6009365262056483	1.6862239520046234	0.26503972121502933	0.5167344031207811	1.731051891248511	0.3195792792359929	0.5497695197125773	1.727673621369731	0.24516462816859083	0.6548767550127461	1.7555600237363593	0.0951657891529742	0.6192872527878999	0.9200566958269667	0.04591336348315241	0.5873352681622463	1.2811628230688423	0.0486887602769094	0.633437086021601	1.7123601921455167	0.06728317074819884	0.42322061121021054	1.6869756127606792	-0.0013518835013116867	0.48393936333228116	1.7021800152241742	0.05560457078489342	0.6738375513612581	1.74649703644849	0.15344336961582433	0.3287157176369052	0.5679335288680677	0.1981512958219913	0.02602126706763726	0.3291335476043317	0.19261547625544514	0.11668770388204751	0.5072392524533903	0.2512752365171712	0.34690666864019104	0.5339299212909793	0.3530167042338684	0.06157273384570003	0.585010190760471	0.2522436577839062	0.13555138801462935	0.6639208933618863	0.2765741656414948	0.15018360308731724	0.6956188308066303	0.28456603536716146	0.11392909343162029	0.6988522894459379	0.2616391858645537	0.08902498196079482	0.7189660659753719	0.01212377547412447	0.2981895467762263	0.5270461451270891	-0.028229512150580265	0.18288839005888863	0.6950103799438307	0.14730311433917712	0.09794086926785497	0.6587218020369038	0.2683638531721378	0.1662754598912271	0.6596412380547407	0.2772751219104199	0.16891961594826713	0.6820602131428309	0.25044707647723013	0.1293544546117428	0.7320586357876299
297	4.95	0.2642003591554086	0.6126490631947902	0.9139703246397498	0.2465378117331758	0.5287869332035443	1.260371645271133	0.23740512607181055	0.5986128098520064	1.6805064782312327	0.2661408256199997	0.5159965075799265	1.72654972888745	0.3196050235895995	0.5499997309216076	1.7276952532119032	0.24182513913263598	0.6380002647813496	1.742819121265612	0.08750814320430662	0.6322749657665355	0.9149695942568441	0.04506876763246528	0.5845299027345379	1.2845345027433572	0.05578284187254767	0.6183331039756633	1.7044323438873439	0.06747455550543409	0.4230110385511267	1.6865551707968824	0.004356754964524328	0.4719027585954468	1.6980601118630803	0.05979662322011131	0.6754039435534899	1.7467203978222534	0.15752469614419654	0.3311477052610549	0.5725595116985147	0.2059972748416831	0.034507813713398214	0.3233781205477148	0.20841168578169192	0.10689832949405179	0.5122842943126705	0.25712041860163487	0.33726623813467155	0.5366838261396706	0.2791326679731447	0.30976408792342386	0.6544283523227086	0.26469339702642275	0.09502727608369203	0.6516441571353998	0.31242524071932115	0.10567652762251696	0.6751483017828698	0.31246866829248743	0.11518224853799511	0.6903649837393951	0.3010768352638436	0.07818167647354249	0.7200539795576965	0.019754223105628632	0.26987569517387217	0.5212345106846247	0.004298650802904714	0.16229483317668103	0.706231021950662	0.1625653249415593	0.10136024926094368	0.6551071246267391	0.2845379643227811	0.15476769971065085	0.6528893353094667	0.30466179817593725	0.11682340173815371	0.6647620259301265	0.28631508433350356	0.13541281113309775	0.7296057108623006
298	4.966666666666667	0.2639076183107837	0.6146444120121989	0.9184587087006455	0.24190543683164142	0.514786758919886	1.264536233270669	0.24146394265077542	0.6011295427791558	1.6815981206683603	0.2723830477017442	0.5004964194075063	1.7184159412012336	0.31732594452650287	0.5365523718028494	1.7218006503627623	0.24426481925472532	0.6529099514917106	1.74981141883621	0.0888784117288763	0.632631380099614	0.9321346023844175	0.04531520748654878	0.5862559914553965	1.2984881084474458	0.05585135646445905	0.6187435925160846	1.7041412494474752	0.06717747490462944	0.4238867713662107	1.6856273820339682	0.0045949130328394065	0.47306867486513154	1.6940977094910603	0.06850641018959215	0.661705685442946	1.7436778192369164	0.1575151750890652	0.3308809811921684	0.5803220118038792	0.2216699515431852	0.04751353744564648	0.3326007381597543	0.2239074257008749	0.09942042787383053	0.5171164881785955	0.26069215792710987	0.3491013532237891	0.5433932772253269	0.29732210197174697	0.4458553605391367	0.7038485426247362	0.28984329689657773	0.21093192945724595	0.6945907086295028	0.32906371949292695	0.11711258360016079	0.6681191217670907	0.34037130121781345	0.11643540364436991	0.6818776780328524	0.324239403099352	0.09156927890880659	0.701022953151616	0.019108393072802807	0.2618289804141339	0.5341280439685117	0.025379017253268427	0.21674979200413513	0.7247376811464581	0.1943367919855025	0.14487467269349846	0.6740306038969734	0.2998900946029563	0.18136221584672185	0.6488510148410369	0.32407335030525725	0.11911089296827067	0.6569273270097332	0.3077226758876014	0.11934142993608203	0.724723582300045
299	4.983333333333333	0.25846650226739815	0.6144630006419788	0.911280231038165	0.24581569872168996	0.5147624024792455	1.2556773491103064	0.24237901130352224	0.6033453756934611	1.6869462061595764	0.266214217061502	0.5150856473611548	1.7261828393607945	0.3147641475600357	0.5231107205343519	1.7155147709185874	0.24431633492666618	0.6530901548389316	1.7500577395943666	0.07748840270461282	0.6299616600854477	0.9335540131286024	0.05166124374660203	0.5866674823206631	1.2944453666082536	0.049842332287969505	0.6334779343169368	1.7081397479734417	0.055704100202969856	0.4360378708383725	1.694259281603103	-0.0075182741837855754	0.49693757221509793	1.7053461488506492	0.06260202390510496	0.6770443877629132	1.7477922667955876	0.15815945955553457	0.332559910708121	0.5827868562104175	0.22256538748558607	0.04865671628218503	0.3394863445045094	0.23302534475552436	0.09090274159920406	0.5154939224162554	0.26261075977993414	0.361456655664192	0.5453442829786893	0.285425758523118	0.46719577495448117	0.7041759345507328	0.3202265942434901	0.25873755296477574	0.704969078517561	0.3457021982665327	0.12854863957780463	0.6610899417513114	0.3682739341431394	0.11768855875074473	0.6733903723263095	0.3474019709348604	0.10495688134407068	0.6819919267455355	0.022970283680653146	0.266324925514124	0.5423181607433863	0.027407366283804926	0.223415749334344	0.7474317060923437	0.22575546565985333	0.11975308163773271	0.678261559661198	0.3294365925845055	0.18559164990440313	0.6397138348233583	0.34732224828805724	0.1238931471044996	0.6472564358588528	0.35123370436320867	0.1254267765152677	0.7199265374455648
300	5.0	0.2579160483860963	0.6134244162224469	0.8939660982222032	0.25077761053804265	0.5319131742603201	1.2612774633957442	0.2432014060840299	0.599720173136109	1.6803212663937963	0.27120126514786563	0.501092691497487	1.722554729051525	0.3217509232081379	0.5391284974802192	1.7223058500792254	0.2406547659794817	0.6838160435901632	1.7689324926713996	0.075250855472913	0.6126693590904461	0.925046806491846	0.05025213911769626	0.5848680528526997	1.2930033542797894	0.05559434071152586	0.6190092991700185	1.7041605806869904	0.0673195164510651	0.4234451080303675	1.6855315453249253	-0.0011967793480033941	0.48310986535705175	1.7050077471169178	0.05684451340256427	0.6758766764806614	1.7520026560530573	0.16413724540315014	0.3202303544236313	0.5876635276508537	0.23901235319701522	0.06637379525605308	0.3486989981867014	0.24628342783990118	0.10612205660725167	0.5128486642852529	0.27173628856934706	0.3503356328891656	0.5392113641105745	0.2868427402435583	0.48237671053610165	0.6819042862221215	0.3478116839144799	0.22684492557328578	0.6896414536791415	0.3623406770401385	0.13998469555544846	0.6540607617355323	0.3961765670684654	0.11894171385711953	0.6649030666197667	0.38069123444107267	0.10154142054251208	0.6769163089460022	0.03452201729144203	0.2682218227710826	0.5422139507621845	0.048821507732141244	0.21026066625986384	0.7529767587532918	0.2572771854726845	0.11724993618084532	0.6787805602790766	0.35356927567649354	0.16110249692478731	0.6307753904010717	0.36007383665603915	0.13377671253684564	0.6369186214064491	0.3654424815301655	0.13425130810698138	0.7052040214792806
301	5.016666666666667	0.2522117777082473	0.6278508623098896	0.8888560992739732	0.2480859625732694	0.5306205126677201	1.2694348518887861	0.24305234878564544	0.5994422830630081	1.6798520674716635	0.27722941986521865	0.48639253277952876	1.7146453894163685	0.32304949317269405	0.5213965237803132	1.7136742362563857	0.23820995060392414	0.6800129064367217	1.7529661058075972	0.06595151135499552	0.5963866764209824	0.9178853187684738	0.051213410630251664	0.5877099803768071	1.2900166139453997	0.055668766303559936	0.6188459423656849	1.7042660259195852	0.07389404362526446	0.41388114120458136	1.6845801007165726	0.012084374085413406	0.4584671421509889	1.69051885945585	0.05628775541176916	0.6767628459421321	1.753486955176576	0.1701211566968649	0.3094023847295181	0.5855230281382588	0.24844074321767354	0.05757237473970846	0.3502300453743374	0.26050273394141726	0.10926105807892834	0.5191684703254722	0.2810138935807091	0.3490766084723168	0.5324936155687059	0.2882597219639986	0.4975576461177221	0.6596326378935102	0.36058890749695716	0.20554093539793122	0.6755619975982026	0.37506867162870505	0.1692494035081632	0.6317570104698467	0.4240791999937914	0.12019486896349435	0.656415760913224	0.413980497947285	0.09812595974095348	0.6718406911464687	0.04155563479322717	0.27358214650251267	0.5611445391817509	0.08767119203389134	0.19967389839635308	0.7595412004531021	0.2726319331212492	0.12085020419377712	0.675096159038706	0.35992972027195097	0.17293818931221994	0.6250686731811839	0.3858214279211213	0.17899403311513862	0.6314199700105185	0.40476008440900474	0.13887650880778188	0.6934634954254993
